<?xml version="1.0" encoding="utf-8"?>
<!-- Generator: Adobe Illustrator 23.0.2, SVG Export Plug-In . SVG Version: 6.00 Build 0)  -->
<svg version="1.1" id="Layer_1" xmlns="http://www.w3.org/2000/svg" xmlns:xlink="http://www.w3.org/1999/xlink" x="0px" y="0px"
	 viewBox="0 0 428 199.03" style="enable-background:new 0 0 428 199.03;" xml:space="preserve">
<style type="text/css">
	.st0{fill:#00F9FF;}
	.st1{fill:#FFFFFF;}
</style>
<g>
	<g>
		<g>
			<g>
				<path class="st0" d="M4.94,195.56v3.39H3.92v-3.39L0,189.14h1.11l3.36,5.5l3.36-5.5h1.04L4.94,195.56z"/>
				<path class="st0" d="M15.91,198.38c-0.79-0.43-1.41-1.03-1.85-1.79c-0.44-0.76-0.67-1.61-0.67-2.55c0-0.94,0.22-1.79,0.67-2.55
					c0.44-0.76,1.06-1.35,1.85-1.79c0.79-0.43,1.67-0.65,2.64-0.65s1.85,0.21,2.63,0.64c0.78,0.43,1.39,1.03,1.84,1.79
					c0.45,0.76,0.67,1.61,0.67,2.56c0,0.94-0.22,1.8-0.67,2.56c-0.45,0.76-1.06,1.36-1.84,1.79c-0.78,0.43-1.66,0.64-2.63,0.64
					S16.69,198.82,15.91,198.38z M20.65,197.58c0.63-0.35,1.12-0.84,1.47-1.46c0.35-0.62,0.53-1.31,0.53-2.08
					c0-0.77-0.18-1.46-0.53-2.08c-0.36-0.62-0.85-1.11-1.47-1.46c-0.63-0.35-1.33-0.52-2.1-0.52s-1.48,0.18-2.11,0.52
					c-0.63,0.35-1.13,0.84-1.48,1.46c-0.36,0.62-0.54,1.31-0.54,2.08c0,0.77,0.18,1.46,0.54,2.08c0.36,0.62,0.85,1.11,1.48,1.46
					c0.63,0.35,1.33,0.53,2.11,0.53S20.02,197.93,20.65,197.58z"/>
				<path class="st0" d="M31.19,197.94c-0.71-0.73-1.07-1.79-1.07-3.18v-5.62h1.04v5.58c0,1.14,0.26,1.99,0.77,2.55
					c0.51,0.56,1.26,0.84,2.23,0.84c0.98,0,1.73-0.28,2.24-0.84c0.51-0.56,0.77-1.41,0.77-2.55v-5.58h1.01v5.62
					c0,1.39-0.35,2.45-1.06,3.18c-0.7,0.73-1.69,1.09-2.96,1.09C32.89,199.03,31.9,198.67,31.19,197.94z"/>
				<path class="st0" d="M52.2,198.95l-2.24-3.15c-0.25,0.03-0.51,0.04-0.78,0.04h-2.63v3.11h-1.04v-9.81h3.67
					c1.25,0,2.23,0.3,2.94,0.9c0.71,0.6,1.07,1.42,1.07,2.47c0,0.77-0.19,1.41-0.58,1.94c-0.39,0.53-0.94,0.91-1.66,1.14l2.4,3.36
					H52.2z M51.38,194.31c0.51-0.43,0.77-1.03,0.77-1.81c0-0.79-0.26-1.4-0.77-1.83c-0.51-0.42-1.26-0.64-2.23-0.64h-2.61v4.92h2.61
					C50.12,194.96,50.86,194.74,51.38,194.31z"/>
				<path class="st0" d="M74.32,190.04c0.71,0.6,1.07,1.42,1.07,2.47c0,1.05-0.36,1.87-1.07,2.46c-0.71,0.59-1.69,0.89-2.94,0.89
					h-2.63v3.1h-1.04v-9.81h3.67C72.63,189.14,73.61,189.44,74.32,190.04z M73.58,194.31c0.51-0.42,0.77-1.02,0.77-1.8
					c0-0.79-0.26-1.4-0.77-1.83c-0.51-0.42-1.26-0.64-2.23-0.64h-2.61v4.9h2.61C72.32,194.94,73.07,194.73,73.58,194.31z"/>
				<path class="st0" d="M87.49,196.33h-5.46l-1.18,2.62h-1.08l4.48-9.81h1.02l4.48,9.81h-1.09L87.49,196.33z M87.11,195.49
					l-2.35-5.27l-2.35,5.27H87.11z"/>
				<path class="st0" d="M102.28,198.95l-2.24-3.15c-0.25,0.03-0.51,0.04-0.78,0.04h-2.63v3.11h-1.04v-9.81h3.67
					c1.25,0,2.23,0.3,2.94,0.9c0.71,0.6,1.07,1.42,1.07,2.47c0,0.77-0.19,1.41-0.58,1.94c-0.39,0.53-0.94,0.91-1.66,1.14l2.4,3.36
					H102.28z M101.45,194.31c0.51-0.43,0.77-1.03,0.77-1.81c0-0.79-0.26-1.4-0.77-1.83c-0.51-0.42-1.26-0.64-2.23-0.64h-2.61v4.92
					h2.61C100.2,194.96,100.94,194.74,101.45,194.31z"/>
				<path class="st0" d="M111.68,190.04h-3.45v-0.9h7.93v0.9h-3.45v8.91h-1.04V190.04z"/>
				<path class="st0" d="M130.21,189.14v9.81h-0.85l-6.3-7.96v7.96h-1.04v-9.81h0.85l6.32,7.96v-7.96H130.21z"/>
				<path class="st0" d="M144.54,198.05v0.9h-6.93v-9.81h6.72v0.9h-5.69v3.49h5.07v0.88h-5.07v3.64H144.54z"/>
				<path class="st0" d="M157.87,198.95l-2.24-3.15c-0.25,0.03-0.51,0.04-0.78,0.04h-2.63v3.11h-1.04v-9.81h3.67
					c1.25,0,2.23,0.3,2.94,0.9c0.71,0.6,1.07,1.42,1.07,2.47c0,0.77-0.19,1.41-0.58,1.94c-0.39,0.53-0.94,0.91-1.66,1.14l2.4,3.36
					H157.87z M157.05,194.31c0.51-0.43,0.77-1.03,0.77-1.81c0-0.79-0.26-1.4-0.77-1.83c-0.51-0.42-1.26-0.64-2.23-0.64h-2.61v4.92
					h2.61C155.79,194.96,156.53,194.74,157.05,194.31z"/>
				<path class="st0" d="M173.38,189.14h1.04v9.81h-1.04V189.14z"/>
				<path class="st0" d="M190.01,189.14v9.81h-0.85l-6.3-7.96v7.96h-1.04v-9.81h0.85l6.32,7.96v-7.96H190.01z"/>
				<path class="st0" d="M211.42,196.33h-5.46l-1.18,2.62h-1.08l4.48-9.81h1.02l4.48,9.81h-1.09L211.42,196.33z M211.04,195.49
					l-2.35-5.27l-2.35,5.27H211.04z"/>
				<path class="st0" d="M219.52,189.14h1.04v8.91h5.49v0.9h-6.53V189.14z"/>
				<path class="st0" d="M231.97,189.14h1.04v8.91h5.49v0.9h-6.53V189.14z"/>
				<path class="st0" d="M254.2,190.04h-3.45v-0.9h7.93v0.9h-3.45v8.91h-1.04V190.04z"/>
				<path class="st0" d="M272.73,189.14v9.81h-1.02v-4.52h-6.14v4.52h-1.04v-9.81h1.04v4.37h6.14v-4.37H272.73z"/>
				<path class="st0" d="M280.13,189.14h1.04v9.81h-1.04V189.14z"/>
				<path class="st0" d="M296.75,189.14v9.81h-0.85l-6.3-7.96v7.96h-1.04v-9.81h0.85l6.32,7.96v-7.96H296.75z"/>
				<path class="st0" d="M311.05,194.05h0.99v3.74c-0.46,0.4-1,0.71-1.63,0.92c-0.63,0.21-1.28,0.32-1.98,0.32
					c-0.98,0-1.86-0.22-2.65-0.64c-0.78-0.43-1.4-1.02-1.85-1.79c-0.45-0.76-0.67-1.61-0.67-2.56c0-0.94,0.22-1.8,0.67-2.56
					c0.45-0.76,1.06-1.36,1.85-1.79c0.78-0.43,1.67-0.64,2.66-0.64c0.75,0,1.43,0.12,2.06,0.36c0.63,0.24,1.15,0.59,1.58,1.06
					l-0.64,0.66c-0.78-0.77-1.76-1.15-2.96-1.15c-0.79,0-1.51,0.18-2.15,0.52c-0.64,0.35-1.14,0.84-1.51,1.46
					c-0.36,0.62-0.55,1.31-0.55,2.08c0,0.77,0.18,1.46,0.55,2.07s0.86,1.1,1.5,1.46c0.64,0.36,1.35,0.53,2.14,0.53
					c1.01,0,1.86-0.25,2.56-0.76V194.05z"/>
				<path class="st0" d="M319.79,198.68c-0.67-0.23-1.18-0.54-1.55-0.92l0.41-0.8c0.36,0.35,0.83,0.64,1.41,0.86
					c0.59,0.22,1.19,0.33,1.82,0.33c0.88,0,1.54-0.16,1.98-0.48c0.44-0.32,0.66-0.74,0.66-1.25c0-0.39-0.12-0.7-0.36-0.94
					c-0.24-0.23-0.53-0.41-0.88-0.54c-0.35-0.13-0.83-0.26-1.44-0.41c-0.74-0.19-1.33-0.37-1.77-0.54
					c-0.44-0.17-0.81-0.44-1.13-0.79c-0.31-0.35-0.47-0.84-0.47-1.44c0-0.49,0.13-0.95,0.39-1.35c0.26-0.41,0.66-0.73,1.2-0.97
					c0.54-0.24,1.21-0.36,2.02-0.36c0.56,0,1.11,0.08,1.65,0.23c0.54,0.15,1,0.37,1.39,0.64l-0.35,0.83
					c-0.41-0.27-0.85-0.47-1.32-0.61c-0.47-0.14-0.92-0.2-1.37-0.2c-0.86,0-1.51,0.17-1.94,0.5c-0.43,0.33-0.65,0.76-0.65,1.28
					c0,0.39,0.12,0.71,0.36,0.95c0.24,0.24,0.54,0.42,0.9,0.55c0.36,0.13,0.84,0.26,1.45,0.41c0.72,0.18,1.3,0.35,1.74,0.53
					c0.44,0.17,0.82,0.43,1.13,0.78c0.31,0.35,0.46,0.82,0.46,1.42c0,0.49-0.13,0.95-0.4,1.35c-0.27,0.41-0.67,0.73-1.23,0.97
					c-0.55,0.24-1.23,0.36-2.03,0.36C321.15,199.03,320.46,198.92,319.79,198.68z"/>
				<path class="st0" d="M340.9,190.04v3.85h5.07v0.9h-5.07v4.16h-1.04v-9.81h6.72v0.9H340.9z"/>
				<path class="st0" d="M352.94,189.14h1.04v9.81h-1.04V189.14z"/>
				<path class="st0" d="M369.56,189.14v9.81h-0.85l-6.3-7.96v7.96h-1.04v-9.81h0.85l6.32,7.96v-7.96H369.56z"/>
				<path class="st0" d="M383.11,196.33h-5.46l-1.18,2.62h-1.08l4.48-9.81h1.02l4.48,9.81h-1.09L383.11,196.33z M382.73,195.49
					l-2.35-5.27l-2.35,5.27H382.73z"/>
				<path class="st0" d="M399.4,189.14v9.81h-0.85l-6.3-7.96v7.96h-1.04v-9.81h0.85l6.32,7.96v-7.96H399.4z"/>
				<path class="st0" d="M408.43,198.39c-0.78-0.43-1.39-1.02-1.84-1.79c-0.44-0.76-0.67-1.61-0.67-2.56c0-0.94,0.22-1.8,0.67-2.56
					c0.44-0.76,1.06-1.36,1.84-1.79c0.78-0.43,1.66-0.64,2.63-0.64c0.73,0,1.4,0.12,2.02,0.36c0.62,0.24,1.14,0.6,1.57,1.06
					l-0.66,0.66c-0.77-0.77-1.73-1.16-2.9-1.16c-0.77,0-1.48,0.18-2.11,0.53c-0.64,0.35-1.13,0.84-1.49,1.46
					c-0.36,0.62-0.54,1.31-0.54,2.07c0,0.77,0.18,1.46,0.54,2.07c0.36,0.62,0.86,1.1,1.49,1.46c0.63,0.36,1.34,0.53,2.11,0.53
					c1.18,0,2.14-0.39,2.9-1.18l0.66,0.66c-0.43,0.47-0.96,0.82-1.58,1.07c-0.62,0.25-1.3,0.37-2.02,0.37
					C410.08,199.03,409.2,198.82,408.43,198.39z"/>
				<path class="st0" d="M428,198.05v0.9h-6.93v-9.81h6.72v0.9h-5.69v3.49h5.07v0.88h-5.07v3.64H428z"/>
			</g>
		</g>
		<g>
			<path class="st1" d="M16.7,178.72c-0.72,0-1.88-0.04-3.47-0.13c-1.04-0.05-1.6-0.08-1.68-0.08c-5.33,0-8.97,0.05-10.84,0.16
				c-0.45,0-0.54-0.11-0.54-0.11c0.11-0.06,0.44-0.16,1.98-0.43c0.78-0.14,1.4-0.47,1.86-1.01c0.45-0.53,0.77-1.52,0.99-3.05
				c0.21-1.45,0.32-3.63,0.32-6.48c0-2.79,0.03-5.07,0.1-6.79c0.07-1.73,0.1-3.06,0.1-3.98c0-2.86-0.11-5.2-0.33-6.94
				c-0.23-1.82-0.56-2.97-1.01-3.51c-0.46-0.55-1.34-0.92-2.67-1.13c-0.22-0.03-0.44-0.1-0.44-0.18c0.02-0.05,0.12-0.1,0.38-0.1
				c0,0,4.73,0.08,4.73,0.08c1.55,0,3.02-0.03,4.37-0.1c3.01-0.15,4.98-0.23,5.86-0.23c3.11,0,5.61,0.68,7.43,2.03
				c1.79,1.34,2.66,3.12,2.66,5.45c0,1.8-0.59,3.37-1.75,4.66c-1.18,1.31-3.21,2.41-6.02,3.27l-1.25,0.38l1.26,0.33
				c3.15,0.83,5.53,2,7.08,3.48c1.52,1.45,2.29,3.23,2.29,5.3c0,2.23-0.97,4.32-2.88,6.22C23.32,177.75,20.45,178.72,16.7,178.72z
				 M13.5,161.14c-1.1,0-2.32,0.06-3.62,0.18l-0.19,0.02l-0.1,0.17c-0.28,0.49-0.41,1.29-0.41,2.44L9,172.01
				c0,3.84,0.13,4.64,0.25,4.92c0.2,0.45,0.76,0.78,1.75,1.04c0.89,0.24,2.26,0.35,4.16,0.35c1.69,0,3.09-0.24,4.17-0.72
				c1.09-0.49,2.11-1.45,3.01-2.86c0.9-1.41,1.36-3.11,1.36-5.06c0-2.91-0.88-5.09-2.62-6.48C19.36,161.83,16.81,161.14,13.5,161.14
				z M14.31,145.04c-1.31,0-2.83,0.27-4.51,0.8l-0.25,0.08l-0.01,0.26c-0.16,3.78-0.23,6.89-0.23,9.25l0.03,3.85
				c0,0.65,0.1,1.04,0.34,1.26c0.23,0.22,0.67,0.31,1.46,0.31c3.35,0,6.08-0.63,8.12-1.86c2.1-1.27,3.17-3.42,3.17-6.39
				c0-2.52-0.79-4.43-2.36-5.69C18.52,145.66,16.59,145.04,14.31,145.04z"/>
			<path class="st1" d="M43.75,178.8c-0.11,0-0.25-0.01-0.41-0.02c-1.79-0.17-3.95-0.26-6.43-0.26c-1.53,0-2.77,0.08-3.7,0.24
				c-0.15,0.01-0.31,0.02-0.46,0.02c-0.33,0-0.41-0.08-0.41-0.08c0-0.07,0.06-0.13,0.34-0.15c1.7-0.02,2.86-0.54,3.42-1.56
				c0.53-0.96,0.79-2.48,0.79-4.67l-0.08-14.83c-0.02-4.83-0.08-7.64-0.2-8.59c-0.12-1.01-0.52-1.86-1.18-2.54
				c-0.66-0.68-1.59-1.12-2.76-1.3c-0.51-0.08-0.67-0.18-0.71-0.22c0,0,0,0,0,0c0.03,0,0.15-0.07,0.49-0.09
				c3.16-0.21,5.59-0.59,7.21-1.15c0.05,2.06,0.09,4.13,0.12,6.19l-0.05,16.18l0.1,7.86c0,1.57,0.23,2.69,0.7,3.42
				c0.49,0.77,1.48,1.2,3.02,1.34c0.41,0.04,0.5,0.14,0.5,0.14C44.06,178.75,44,178.8,43.75,178.8z"/>
			<path class="st1" d="M55.92,178.82c-1.23,0-2.28-0.3-3.1-0.89c-0.82-0.59-1.37-1.31-1.63-2.14c-0.27-0.87-0.47-3.13-0.57-6.7
				c-0.1-3.6-0.16-6.46-0.16-8.52c0-1.58-0.12-2.04-0.21-2.25c-0.19-0.42-0.66-0.65-1.46-0.69c-0.43-0.03-0.6-0.11-0.67-0.15
				c0.07,0,0.3-0.07,0.85-0.07h4.44c0.08,1.37,0.15,4.53,0.21,9.41c0.03,3.41,0.12,5.63,0.26,6.76c0.15,1.2,0.63,2.2,1.42,2.99
				c0.81,0.8,1.75,1.2,2.8,1.2c1.34,0,2.69-0.62,4.01-1.84c1.31-1.21,2.13-2.53,2.44-3.92c0.3-1.37,0.45-4.38,0.45-9.22
				c0-3.07-0.27-3.88-0.47-4.22c-0.35-0.59-1.11-0.91-2.32-0.99c-0.2-0.01-0.25-0.05-0.25-0.05c0-0.07,0.17-0.12,0.98-0.12h4.86
				c0.14,1.79,0.21,3.79,0.21,5.98l-0.21,9.77c0,2.14,0.18,3.41,0.57,4.01c0.4,0.62,1.03,0.97,1.87,1.05
				c0.15,0.02,0.33,0.08,0.34,0.14c0,0,0,0,0,0c-0.03,0-0.24,0.11-0.95,0.11h-4.11c-0.7,0-0.7-0.22-0.7-0.33
				c0-0.13,0.01-0.27,0.02-0.43c0.05-0.53,0.08-1.07,0.08-1.62c0-0.46-0.03-1.12-0.08-2l-0.06-0.98l-0.6,0.78
				c-1.28,1.66-2.63,2.91-4.01,3.73C58.82,178.41,57.39,178.82,55.92,178.82z"/>
			<path class="st1" d="M84.98,179.06c-2.76,0-5.13-1.01-7.04-2.99c-1.92-1.99-2.89-4.55-2.89-7.61c0-3.28,1.07-6.06,3.19-8.25
				c2.11-2.19,4.39-3.29,6.77-3.29c2.23,0,4.28,0.86,6.09,2.57c1.8,1.7,2.72,3.71,2.72,5.99c0,0.38-0.07,0.54-0.11,0.6
				c0,0,0,0-0.01,0c-0.06,0-0.41,0.1-1.67,0.1l-13.37,0.21l-0.03,0.34c-0.07,0.89-0.11,1.61-0.11,2.14c0,2.54,0.76,4.72,2.27,6.48
				c1.52,1.78,3.42,2.68,5.66,2.68c2.17,0,4.21-0.87,6.06-2.6c0.52-0.47,0.72-0.58,0.77-0.6c-0.01,0.02,0.02,0.08,0.03,0.22
				c-0.63,1.1-1.7,2.05-3.18,2.83C88.61,178.65,86.87,179.06,84.98,179.06z M85.15,157.08c-1.35,0-2.69,0.66-4,1.97
				c-1.3,1.29-2.14,3.41-2.52,6.29l-0.05,0.4l0.4,0.02c2.25,0.1,4.47,0.16,6.59,0.16l1.4-0.08c1.1-0.04,1.97-0.26,2.58-0.67
				c0.66-0.44,1-1.21,1-2.27c0-1.55-0.54-2.91-1.6-4.06C87.88,157.67,86.6,157.08,85.15,157.08z"/>
			<path class="st1" d="M127.76,178.98c-4.54,0-8.4-1.61-11.48-4.78c-3.08-3.17-4.64-7.4-4.64-12.56c0-2.27,0.7-4.81,2.09-7.54
				c1.39-2.73,3.44-5.01,6.1-6.79c2.66-1.77,5.7-2.67,9.04-2.67c4.67,0,8.58,1.69,11.63,5.03c3.05,3.35,4.6,7.22,4.6,11.51
				c0,4.56-1.72,8.72-5.1,12.35C136.62,177.14,132.51,178.98,127.76,178.98z M128.32,145.14c-2.64,0-4.87,0.9-6.63,2.67
				c-1.73,1.74-3.01,3.86-3.8,6.28c-0.79,2.4-1.19,4.66-1.19,6.7c0,2.85,0.44,5.82,1.31,8.81c0.89,3.04,2.3,5.29,4.22,6.68
				c1.91,1.39,3.98,2.09,6.17,2.09c3.53,0,6.4-1.74,8.51-5.16c2.08-3.37,3.13-7.32,3.13-11.74c0-4.29-1.08-8.11-3.2-11.36
				C134.68,146.81,131.82,145.14,128.32,145.14z"/>
			<path class="st1" d="M159.7,178.9c-2.76,0-5.1-1.06-6.98-3.16c-1.89-2.11-2.85-4.58-2.85-7.36c0-3.07,1-5.79,2.97-8.09
				c1.95-2.28,4.37-3.44,7.17-3.44c1.82,0,3.59,0.45,5.26,1.35c1.62,0.87,2.41,1.9,2.41,3.15c0,0.45-0.13,0.84-0.41,1.18
				c-0.26,0.32-0.54,0.47-0.86,0.47c-0.79,0-1.42-0.7-1.89-2.09c-0.85-2.55-2.38-3.84-4.54-3.84c-2.11,0-3.73,0.92-4.83,2.74
				c-1.06,1.76-1.6,4.09-1.6,6.92c0,3.33,0.75,6.09,2.23,8.21c1.51,2.16,3.36,3.26,5.51,3.26c1.42,0,2.8-0.55,4.11-1.65
				c1.3-1.08,2.07-2.42,2.29-3.98c0.03-0.2,0.11-0.44,0.21-0.44l0.1,0.1c0,1.59-0.75,3.11-2.24,4.52
				C164.27,178.18,162.23,178.9,159.7,178.9z"/>
			<path class="st1" d="M182.08,179.06c-2.76,0-5.13-1.01-7.04-2.99c-1.92-1.99-2.89-4.55-2.89-7.61c0-3.28,1.07-6.06,3.19-8.25
				c2.11-2.19,4.39-3.29,6.77-3.29c2.23,0,4.28,0.86,6.09,2.57c1.8,1.7,2.72,3.71,2.72,5.99c0,0.38-0.07,0.54-0.11,0.6
				c0,0,0,0-0.01,0c-0.06,0-0.41,0.1-1.67,0.1l-13.37,0.21l-0.03,0.34c-0.07,0.89-0.11,1.61-0.11,2.14c0,2.54,0.76,4.72,2.27,6.48
				c1.52,1.78,3.42,2.68,5.66,2.68c2.17,0,4.21-0.87,6.06-2.6c0.52-0.47,0.72-0.58,0.77-0.6c-0.01,0.02,0.02,0.08,0.03,0.22
				c-0.63,1.1-1.7,2.05-3.18,2.83C185.7,178.65,183.97,179.06,182.08,179.06z M182.24,157.08c-1.35,0-2.69,0.66-4,1.97
				c-1.3,1.29-2.14,3.41-2.52,6.29l-0.05,0.4l0.4,0.02c2.25,0.1,4.47,0.16,6.59,0.16l1.4-0.08c1.1-0.04,1.97-0.26,2.58-0.67
				c0.66-0.44,1-1.21,1-2.27c0-1.55-0.54-2.91-1.6-4.06C184.98,157.67,183.7,157.08,182.24,157.08z"/>
			<path class="st1" d="M200.83,178.88c-1.65,0-2.95-0.44-3.87-1.3c-0.93-0.87-1.38-1.99-1.38-3.43c0-1.07,0.28-2.08,0.84-3.01
				c0.56-0.93,1.21-1.6,1.92-2c0.75-0.42,2.1-0.96,4.01-1.61c2.86-0.95,4.55-1.73,5.15-2.39c0.62-0.67,0.93-1.56,0.93-2.62
				c0-1.63-0.4-2.93-1.18-3.85c-0.8-0.94-1.93-1.42-3.38-1.42c-1.18,0-2.09,0.28-2.72,0.82c-0.62,0.57-1.08,1.6-1.39,3.16
				c-0.41,2.11-1.38,2.11-1.69,2.11c-0.29,0-0.64-0.16-1.02-0.49c-0.37-0.31-0.56-0.77-0.56-1.41c0-1.18,0.65-2.19,1.99-3.09
				c1.37-0.92,3.3-1.38,5.72-1.38c1.93,0,3.48,0.27,4.61,0.81c1.1,0.52,1.79,1.11,2.05,1.75c0.28,0.68,0.43,2.05,0.43,4.08
				l-0.16,6.87c0,2.73,0.16,4.61,0.49,5.77c0.46,1.61,1.42,1.95,2.14,1.95c0.19,0,0.45-0.03,0.79-0.08l0.42-0.05
				c0.14,0,0.19,0.04,0.19,0.04c-0.01,0.05-0.24,0.65-4.76,0.65c-0.86,0-1.43-0.18-1.69-0.54c-0.2-0.27-0.45-0.95-0.49-2.66
				l-0.03-1.14l-0.65,0.94c-0.81,1.18-1.79,2.07-2.91,2.65C203.54,178.58,202.25,178.88,200.83,178.88z M207.58,165.18
				c-0.48,0.63-1.63,1.43-3.42,2.37c-1.85,0.95-3.2,1.88-4.02,2.75c-0.86,0.94-1.3,2.07-1.3,3.38c0,1.18,0.36,2.19,1.06,3.02
				c0.72,0.85,1.63,1.27,2.71,1.27c1.08,0,2.1-0.33,3.05-0.99c0.94-0.65,1.64-1.5,2.09-2.51c0.45-1.01,0.67-2.45,0.67-4.39
				c0-1.4-0.06-2.99-0.18-4.71l-0.07-0.97L207.58,165.18z"/>
			<path class="st1" d="M225.83,178.57c-0.49-0.04-2.07-0.05-4.83-0.05l-2.08,0.05c-0.47,0-0.67-0.06-0.75-0.09
				c0.08-0.02,0.3-0.15,0.92-0.27c0.9-0.18,1.5-0.49,1.83-0.97c0.22-0.31,0.49-1.06,0.62-4.09c0.09-2.19,0.14-4.97,0.14-8.27
				c0-3.17-0.22-5.1-0.67-5.91c-0.47-0.84-1.13-1.36-1.98-1.56c-0.61-0.14-0.72-0.28-0.73-0.3l0,0c0.01,0,0.11-0.06,0.41-0.06
				l2.1,0.03c0.22,0,1.31-0.02,3.26-0.07c0.34,1,0.56,2.62,0.64,4.81l0.04,1.2l0.64-1.01c1.04-1.65,2.21-2.89,3.46-3.71
				c1.24-0.81,2.61-1.21,4.08-1.21c1.12,0,2.23,0.21,3.28,0.64c1.03,0.41,1.8,1.11,2.36,2.12c0.56,1.02,0.85,2.82,0.85,5.34
				l-0.16,8.75c0,2.27,0.27,2.94,0.47,3.24c0.32,0.49,0.96,0.86,1.94,1.13c0.55,0.16,0.65,0.28,0.66,0.29
				c-0.2-0.05-0.3-0.06-0.41-0.07c-0.79-0.16-2.01-0.24-3.58-0.24c-1.4,0-2.93,0.06-4.55,0.18c-0.32,0-0.47-0.05-0.54-0.08
				c0.03-0.01,0.1-0.03,0.2-0.05c1.02-0.22,1.68-0.46,2.02-0.72c0.35-0.27,0.61-0.63,0.75-1.08c0.09-0.26,0.21-0.95,0.32-3.85
				c0.08-2.18,0.12-3.88,0.12-5.21c0-3.77-0.47-6.23-1.45-7.52c-0.99-1.3-2.24-1.96-3.73-1.96c-2.16,0-3.97,1.17-5.37,3.47
				c-1.37,2.24-2.07,6-2.07,11.16c0,2.4,0.16,3.9,0.49,4.59c0.36,0.75,1.22,1.21,2.57,1.37c0.21,0.02,0.24,0.06,0.24,0.11
				c0,0,0,0,0,0c-0.02,0-0.08,0.01-0.18,0.01L225.83,178.57z"/>
			<path class="st1" d="M273.68,178.9c-0.2,0-0.74-0.04-1.6-0.13c-1.81-0.17-3.43-0.26-4.82-0.26c-1.18,0-2.84,0.06-4.94,0.19
				l-1.45,0.07c-0.19,0-0.44-0.03-0.44-0.15c0,0,0.13-0.15,0.85-0.15c1.22,0,2.13-0.36,2.69-1.08c0.54-0.69,0.87-2.32,1.03-4.98
				c0.15-2.57,0.22-5.98,0.22-10.15c0-3.94-0.07-7.09-0.21-9.37c-0.14-2.33-0.34-3.83-0.61-4.59c-0.28-0.79-0.71-1.37-1.29-1.72
				c-0.56-0.34-1.55-0.55-3.03-0.64c-0.4-0.02-0.48-0.12-0.48-0.12c-0.01-0.01,0.07-0.08,0.38-0.1c4.31-0.34,12.57-0.52,24.55-0.52
				c2.67,0,3.17,0.05,3.26,0.07c0.08,0.03,0.13,0.07,0.17,0.14c0.04,0.1,0.18,0.7,0.67,3.51c0.47,2.68,0.57,3.36,0.58,3.46
				c0,0.12-0.03,0.16-0.03,0.16c0,0-0.01,0-0.01,0c-0.11,0-0.23-0.08-0.38-0.33c-2.5-4.35-6.62-6.55-12.24-6.55
				c-1.9,0-3.46,0.08-4.65,0.25c-1.68,0.24-2.09,0.5-2.28,0.73c-0.19,0.23-0.38,0.81-0.46,3.49c-0.06,1.92-0.09,5.35-0.09,10.18
				v0.35l0.35,0.02c1.38,0.07,2.33,0.1,2.86,0.1c2.6,0,4.44-0.58,5.49-1.72c1.04-1.13,1.59-2.32,1.65-3.55
				c0.03-0.58,0.15-0.79,0.22-0.79c0.08,0,0.2,0,0.2,0.41c0,0.16-0.02,0.36-0.05,0.6c-0.14,1.04-0.21,3.58-0.21,7.78v3.02
				c0,0.48-0.09,0.72-0.28,0.72c-0.06,0-0.18,0-0.2-0.45c-0.06-1.65-0.59-3.02-1.58-4.08c-1.02-1.08-2.91-1.61-5.8-1.61
				c-0.45,0-1.22,0.03-2.3,0.08l-0.35,0.02l-0.08,6.77c0,6.08,0.13,7.27,0.22,7.63c0.15,0.58,0.48,1.18,0.97,1.78
				c0.53,0.65,1.56,1.02,3.14,1.11c0.71,0.03,0.82,0.19,0.82,0.19C274.14,178.77,274.14,178.9,273.68,178.9z"/>
			<path class="st1" d="M303.38,178.67c-0.13,0-0.27-0.01-0.43-0.02c-1.61-0.21-3.14-0.31-4.54-0.31c-2.26,0-3.79,0.07-4.66,0.21
				c-0.16,0.03-0.31,0.05-0.46,0.05c-0.17,0-0.24-0.03-0.25-0.04c-0.01-0.02,0.13-0.21,1.12-0.34c1.08-0.14,1.74-0.38,2.08-0.76
				c0.23-0.26,0.49-0.82,0.49-2.83l0.18-10.76c0-3.99-0.42-4.97-0.73-5.35c-0.51-0.62-1.43-0.94-2.8-0.98
				c-0.22,0-0.27-0.04-0.27-0.04c0.1-0.07,0.57-0.16,2.97-0.34c1.62-0.12,2.83-0.19,3.61-0.22l-0.02,5.47l0.05,5.47v4.11l-0.03,3.12
				c0,1.38,0.24,2.25,0.74,2.67c0.47,0.39,1.16,0.61,2.05,0.64c0.95,0.05,1.08,0.24,1.08,0.24
				C303.57,178.64,303.53,178.67,303.38,178.67z M297.32,148.24c-0.58,0-1.08-0.18-1.54-0.55c-0.43-0.35-0.64-0.83-0.64-1.44
				c0-0.62,0.18-1.1,0.56-1.48c0.37-0.38,0.85-0.57,1.47-0.57c0.57,0,1.06,0.21,1.52,0.63c0.44,0.42,0.66,0.85,0.66,1.32
				c0,0.59-0.18,1.08-0.55,1.5C298.45,148.04,297.96,148.24,297.32,148.24z"/>
			<path class="st1" d="M314.6,178.57c-0.49-0.04-2.07-0.05-4.83-0.05l-2.08,0.05c-0.47,0-0.67-0.06-0.75-0.09
				c0.08-0.02,0.3-0.15,0.92-0.27c0.9-0.18,1.5-0.49,1.83-0.97c0.22-0.31,0.49-1.06,0.62-4.09c0.09-2.19,0.14-4.97,0.14-8.27
				c0-3.17-0.22-5.1-0.67-5.91c-0.47-0.84-1.13-1.36-1.98-1.56c-0.61-0.14-0.72-0.28-0.73-0.3l0,0c0.01,0,0.11-0.06,0.41-0.06
				l2.1,0.03c0.22,0,1.31-0.02,3.26-0.07c0.34,1,0.56,2.62,0.64,4.81l0.04,1.2l0.64-1.01c1.04-1.65,2.21-2.89,3.46-3.71
				c1.24-0.81,2.61-1.21,4.08-1.21c1.12,0,2.23,0.21,3.28,0.64c1.03,0.41,1.8,1.11,2.36,2.12c0.56,1.02,0.85,2.82,0.85,5.34
				l-0.16,8.75c0,2.27,0.27,2.94,0.47,3.24c0.32,0.49,0.96,0.86,1.94,1.13c0.55,0.16,0.65,0.28,0.66,0.29
				c-0.2-0.05-0.3-0.06-0.41-0.07c-0.79-0.16-2.01-0.24-3.58-0.24c-1.4,0-2.93,0.06-4.55,0.18c-0.32,0-0.47-0.05-0.54-0.08
				c0.03-0.01,0.1-0.03,0.2-0.05c1.02-0.22,1.68-0.46,2.02-0.72c0.35-0.27,0.61-0.63,0.75-1.08c0.09-0.26,0.21-0.95,0.32-3.85
				c0.08-2.18,0.12-3.88,0.12-5.21c0-3.77-0.47-6.23-1.45-7.52c-0.99-1.3-2.24-1.96-3.73-1.96c-2.16,0-3.97,1.17-5.37,3.47
				c-1.37,2.24-2.07,6-2.07,11.16c0,2.4,0.16,3.9,0.49,4.59c0.36,0.75,1.22,1.21,2.57,1.37c0.21,0.02,0.24,0.06,0.24,0.11
				c0,0,0,0,0,0c-0.02,0-0.08,0.01-0.18,0.01L314.6,178.57z"/>
			<path class="st1" d="M341.2,178.88c-1.65,0-2.95-0.44-3.87-1.3c-0.93-0.87-1.38-1.99-1.38-3.43c0-1.07,0.28-2.08,0.84-3.01
				c0.56-0.93,1.21-1.6,1.92-2c0.75-0.42,2.1-0.96,4.01-1.61c2.86-0.95,4.55-1.73,5.15-2.39c0.62-0.67,0.93-1.56,0.93-2.62
				c0-1.63-0.4-2.93-1.18-3.85c-0.8-0.94-1.94-1.42-3.38-1.42c-1.18,0-2.09,0.28-2.72,0.82c-0.62,0.57-1.08,1.6-1.39,3.16
				c-0.41,2.11-1.37,2.11-1.69,2.11c-0.29,0-0.64-0.16-1.03-0.49c-0.37-0.31-0.56-0.77-0.56-1.41c0-1.18,0.65-2.19,1.99-3.09
				c1.37-0.92,3.3-1.38,5.72-1.38c1.93,0,3.48,0.27,4.61,0.81c1.1,0.52,1.79,1.11,2.05,1.75c0.28,0.68,0.43,2.05,0.43,4.08
				l-0.16,6.87c0,2.72,0.16,4.61,0.5,5.77c0.46,1.61,1.42,1.95,2.14,1.95c0.19,0,0.45-0.03,0.79-0.08l0.43-0.05
				c0.14,0,0.19,0.04,0.19,0.04c-0.01,0.05-0.24,0.65-4.76,0.65c-0.86,0-1.43-0.18-1.69-0.54c-0.2-0.27-0.45-0.95-0.49-2.66
				l-0.03-1.14l-0.65,0.94c-0.81,1.18-1.79,2.07-2.91,2.65C343.92,178.58,342.63,178.88,341.2,178.88z M347.96,165.18
				c-0.49,0.63-1.64,1.43-3.42,2.37c-1.85,0.95-3.2,1.88-4.02,2.75c-0.86,0.94-1.3,2.07-1.3,3.37c0,1.18,0.36,2.19,1.06,3.02
				c0.72,0.85,1.63,1.27,2.71,1.27c1.08,0,2.1-0.33,3.05-0.99c0.94-0.65,1.64-1.5,2.09-2.51c0.45-1.01,0.67-2.45,0.67-4.39
				c0-1.4-0.06-2.98-0.18-4.71l-0.07-0.97L347.96,165.18z"/>
			<path class="st1" d="M366.21,178.57c-0.49-0.04-2.07-0.05-4.83-0.05l-2.08,0.05c-0.47,0-0.67-0.06-0.75-0.09
				c0.08-0.02,0.3-0.15,0.92-0.27c0.9-0.18,1.5-0.49,1.83-0.97c0.22-0.31,0.49-1.06,0.62-4.09c0.09-2.19,0.14-4.97,0.14-8.27
				c0-3.17-0.22-5.1-0.67-5.91c-0.47-0.84-1.13-1.36-1.98-1.56c-0.61-0.14-0.72-0.28-0.73-0.3l0,0c0.01,0,0.11-0.06,0.41-0.06
				l2.1,0.03c0.22,0,1.31-0.02,3.26-0.07c0.34,1,0.56,2.62,0.64,4.81l0.04,1.2l0.64-1.01c1.04-1.65,2.21-2.89,3.46-3.71
				c1.24-0.81,2.61-1.21,4.08-1.21c1.12,0,2.23,0.21,3.28,0.64c1.03,0.41,1.8,1.11,2.36,2.12c0.56,1.02,0.85,2.82,0.85,5.34
				l-0.16,8.75c0,2.27,0.27,2.94,0.47,3.24c0.32,0.49,0.96,0.86,1.94,1.13c0.55,0.16,0.65,0.28,0.66,0.29
				c-0.2-0.05-0.3-0.06-0.41-0.07c-0.79-0.16-2.01-0.24-3.58-0.24c-1.4,0-2.93,0.06-4.55,0.18c-0.32,0-0.47-0.05-0.54-0.08
				c0.03-0.01,0.1-0.03,0.2-0.05c1.02-0.22,1.68-0.46,2.02-0.72c0.35-0.27,0.61-0.63,0.75-1.08c0.09-0.26,0.21-0.95,0.32-3.85
				c0.08-2.18,0.12-3.88,0.12-5.21c0-3.77-0.47-6.23-1.45-7.52c-0.99-1.3-2.24-1.96-3.73-1.96c-2.16,0-3.97,1.17-5.37,3.47
				c-1.37,2.24-2.07,6-2.07,11.16c0,2.4,0.16,3.9,0.49,4.59c0.36,0.75,1.22,1.21,2.57,1.37c0.21,0.02,0.24,0.06,0.24,0.11
				c0,0,0,0,0,0c-0.02,0-0.08,0.01-0.18,0.01L366.21,178.57z"/>
			<path class="st1" d="M396.63,178.9c-2.76,0-5.1-1.06-6.98-3.16c-1.89-2.11-2.85-4.58-2.85-7.36c0-3.07,1-5.79,2.97-8.09
				c1.96-2.28,4.37-3.44,7.17-3.44c1.82,0,3.59,0.45,5.26,1.35c1.62,0.87,2.41,1.9,2.41,3.15c0,0.45-0.14,0.84-0.41,1.18
				c-0.26,0.32-0.54,0.47-0.86,0.47c-0.79,0-1.42-0.7-1.89-2.09c-0.85-2.55-2.38-3.84-4.54-3.84c-2.11,0-3.73,0.92-4.83,2.74
				c-1.06,1.76-1.6,4.09-1.6,6.92c0,3.33,0.75,6.09,2.23,8.21c1.51,2.16,3.36,3.26,5.5,3.26c1.42,0,2.8-0.55,4.11-1.65
				c1.3-1.08,2.07-2.42,2.29-3.98c0.04-0.21,0.11-0.44,0.2-0.44l0.1,0.1c0,1.59-0.75,3.11-2.24,4.52
				C401.19,178.18,399.16,178.9,396.63,178.9z"/>
			<path class="st1" d="M419,179.06c-2.76,0-5.13-1.01-7.05-2.99c-1.92-1.99-2.89-4.55-2.89-7.61c0-3.28,1.07-6.06,3.19-8.25
				c2.11-2.19,4.39-3.29,6.77-3.29c2.23,0,4.28,0.86,6.09,2.57c1.8,1.7,2.72,3.71,2.72,5.99c0,0.38-0.07,0.54-0.11,0.6
				c0,0,0,0-0.01,0c-0.05,0-0.41,0.1-1.67,0.1l-13.37,0.21l-0.03,0.34c-0.07,0.88-0.1,1.6-0.1,2.14c0,2.54,0.76,4.72,2.26,6.48
				c1.52,1.78,3.42,2.68,5.66,2.68c2.17,0,4.21-0.87,6.07-2.6c0.52-0.47,0.72-0.58,0.77-0.6c-0.01,0.02,0.02,0.08,0.03,0.22
				c-0.63,1.1-1.7,2.05-3.18,2.83C422.63,178.65,420.89,179.06,419,179.06z M419.17,157.08c-1.35,0-2.69,0.66-4,1.97
				c-1.3,1.29-2.14,3.41-2.52,6.29l-0.05,0.4l0.4,0.02c2.25,0.1,4.47,0.16,6.59,0.16l1.4-0.08c1.12-0.04,1.96-0.26,2.58-0.67
				c0.66-0.44,1-1.21,1-2.27c0-1.55-0.54-2.91-1.6-4.06C421.91,157.67,420.63,157.08,419.17,157.08z"/>
		</g>
	</g>
	<g>
		<path class="st1" d="M268.19,90.26c-1.52-0.61-3.1-1.09-4.69-1.42V42.43L214,5.84l-49.45,36.49L164.5,88.8
			c-1.45,0.29-2.88,0.7-4.25,1.21c0,0-0.34,0.12-0.44,0.17V39.94L214,0l54.24,40.04L268.19,90.26z"/>
		<path class="st1" d="M231.4,37.02l4.69-3.46v63.05c-1.25,1.12-2.47,2.55-3.58,4.14c-0.44,0.62-0.8,1.17-1.11,1.69V37.02z"/>
		<path class="st1" d="M213.94,121.24c-0.8,0-1.57-0.07-2.28-0.21V49.06l4.69-3.46v75.39C215.55,121.16,214.77,121.24,213.94,121.24
			z"/>
		<path class="st1" d="M196.6,102.68c-1.31-2.18-2.9-4.18-4.73-5.96l0.04-35.63l4.69-3.46V102.68z"/>
		<path class="st0" d="M125.82,131.37v-4.9l1.33,0.01c1.65,0,3.31-0.22,4.94-0.65c5.22-1.37,9.84-4.91,12.67-9.72
			c0.93-1.57,1.66-3.26,2.18-5.05c0.76-2.64,1.94-5.1,3.5-7.33c2.01-2.86,4.56-5.22,7.59-6.99c1.25-0.74,2.6-1.37,3.99-1.87
			c2.71-1,5.6-1.51,8.59-1.54l0.2-0.01c6.15,0.02,11.85,2.17,16.48,6.21c3.65,3.19,6.18,7.22,7.73,12.33
			c0.48,1.58,1.09,3.04,1.81,4.34c2.58,4.76,6.73,7.97,12.33,9.54l0.33,0.09c1.46,0.38,2.96,0.57,4.45,0.57
			c1.17,0,2.33-0.12,3.45-0.35c0.33-0.07,0.67-0.15,1-0.24c5.22-1.37,9.84-4.91,12.67-9.72c0.93-1.57,1.66-3.26,2.18-5.05
			c0.76-2.64,1.94-5.1,3.5-7.33c2.01-2.86,4.56-5.22,7.59-6.99c1.25-0.74,2.59-1.37,3.99-1.87c2.71-1,5.6-1.51,8.59-1.54l0.2-0.01
			c6.15,0.02,11.85,2.17,16.48,6.21c3.65,3.19,6.18,7.22,7.73,12.33c0.48,1.59,1.09,3.05,1.81,4.34c2.58,4.75,6.73,7.97,12.33,9.54
			l0.33,0.09c1.68,0.44,3.36,0.66,5,0.66l1.31-0.01l0.09,1.13v3.73l-1.55-0.02c-11.05,0-20.42-6.94-23.88-17.68
			c-1.97-6.11-5.02-10.15-9.59-12.7c-3.17-1.78-6.69-2.73-10.19-2.73c-8.68,0-16.16,5.55-19.06,14.13
			c-1.51,4.48-3.16,7.62-5.35,10.19c-1.11,1.3-2.34,2.49-3.65,3.52c-4.28,3.36-9.56,5.29-14.48,5.29c-0.4,0-0.8-0.01-1.2-0.04
			c-5.48-0.37-10.47-2.23-14.42-5.38c-3.88-3.1-6.77-7.35-8.37-12.28c-1.97-6.11-5.02-10.15-9.59-12.7
			c-3.17-1.78-6.69-2.73-10.19-2.73c-8.68,0-16.16,5.55-19.06,14.13c-1.51,4.48-3.15,7.62-5.35,10.19
			c-4.77,5.61-11.68,8.83-18.96,8.83L125.82,131.37z"/>
	</g>
</g>
</svg>
